<svg xmlns="http://www.w3.org/2000/svg" viewBox="0 0 496 512">
  <path class="icons--github"
        fill="white" stroke="black" stroke-width="15"
        d="M 187.00,476.00
           C 187.00,478.50 187.10,481.62 186.35,484.00
             181.57,499.05 160.30,488.85 151.00,484.99
             116.66,470.71 90.62,450.74 65.04,424.00
             32.46,389.94 9.32,338.50 2.43,292.00
             -0.39,273.02 -0.22,254.15 0.00,235.00
             0.31,208.81 9.96,172.83 20.70,149.00
             33.89,119.73 49.95,96.51 73.00,74.01
             107.70,40.15 154.46,18.73 202.00,10.92
             210.04,9.60 221.98,8.01 230.00,8.00
             230.00,8.00 262.00,8.00 262.00,8.00
             262.00,8.00 279.00,9.72 279.00,9.72
             308.15,13.51 337.86,21.60 364.00,35.32
             414.12,61.62 448.04,96.45 473.25,147.00
             485.13,170.83 495.96,210.33 496.00,237.00
             496.00,237.00 496.00,267.00 496.00,267.00
             495.98,278.65 492.97,297.45 490.42,309.00
             480.89,352.21 461.14,392.33 431.08,425.00
             431.08,425.00 422.00,434.96 422.00,434.96
             399.59,456.65 372.82,474.14 344.00,485.99
             334.45,489.92 315.29,498.22 311.06,483.00
             310.24,480.07 310.04,477.02 310.05,474.00
             310.05,474.00 310.05,460.00 310.05,460.00
             310.05,460.00 311.00,448.00 311.00,448.00
             311.03,427.46 312.81,390.41 307.28,372.00
             303.07,357.99 297.84,356.29 294.00,348.00
             294.00,348.00 312.00,346.13 312.00,346.13
             333.19,343.19 357.86,337.97 375.00,324.48
             396.79,307.35 407.68,278.26 408.00,251.00
             408.21,233.15 409.24,221.54 400.74,205.00
             397.65,198.99 394.18,194.26 390.00,189.00
             388.22,186.77 384.40,182.57 383.69,180.00
             382.93,177.27 384.68,172.83 385.35,170.00
             386.44,165.38 387.64,156.74 387.91,152.00
             388.35,144.21 385.35,128.63 382.98,121.00
             381.74,117.03 380.59,112.57 375.98,111.47
             371.81,110.47 361.11,113.60 357.00,115.20
             346.90,119.14 338.31,123.22 329.00,128.80
             325.78,130.73 314.77,137.81 312.00,138.40
             309.08,139.03 298.68,136.14 295.00,135.40
             285.40,133.48 269.59,131.01 260.00,131.00
             242.27,130.97 231.91,130.63 214.00,133.27
             214.00,133.27 187.00,138.60 187.00,138.60
             183.22,138.41 174.65,132.38 171.00,130.20
             160.36,123.85 147.89,117.29 136.00,113.72
             132.34,112.62 124.66,110.56 121.05,111.58
             116.49,112.87 115.61,118.04 114.34,122.00
             111.08,132.23 109.88,142.31 110.00,153.00
             110.06,158.11 111.14,165.02 112.37,170.00
             113.04,172.70 114.75,177.42 114.08,180.00
             114.08,180.00 100.87,199.00 100.87,199.00
             93.83,211.32 92.48,221.22 91.17,235.00
             90.45,242.57 91.67,245.47 91.96,252.00
             93.29,281.57 102.80,309.87 128.00,327.56
             144.53,339.17 166.38,343.41 186.00,346.13
             186.00,346.13 204.00,348.00 204.00,348.00
             199.65,354.87 195.17,359.07 192.07,367.00
             190.78,370.29 188.16,381.48 186.42,383.19
             182.61,386.92 165.59,389.74 160.00,389.96
             138.49,390.80 121.12,377.93 112.00,359.00
             105.65,360.48 99.24,359.08 96.00,353.00
             96.00,353.00 106.00,351.00 106.00,351.00
             95.45,345.37 93.36,339.98 78.00,337.03
             74.88,336.43 68.73,336.09 66.82,339.31
             65.01,342.38 68.93,345.89 71.02,347.67
             80.90,356.12 82.61,353.54 91.64,367.00
             99.72,379.04 103.22,393.18 111.17,402.00
             129.42,422.23 162.43,421.42 187.00,417.00
             187.00,417.00 187.00,476.00 187.00,476.00 Z
           M 96.00,345.00
           C 96.00,345.00 96.00,348.00 96.00,348.00
             96.00,348.00 93.00,352.00 93.00,352.00
             93.00,352.00 88.00,348.00 88.00,348.00
             88.00,348.00 86.00,351.00 86.00,351.00
             86.00,351.00 86.00,344.00 86.00,344.00
             86.00,344.00 96.00,345.00 96.00,345.00 Z
           M 113.36,373.36
           C 110.43,376.26 103.82,371.55 107.60,366.04
             113.86,363.95 115.68,371.07 113.36,373.36 Z
           M 126.85,387.96
           C 122.47,390.38 114.68,385.43 119.33,380.04
             126.22,377.91 133.38,384.35 126.85,387.96 Z
           M 139.00,390.48
           C 150.89,389.42 143.49,404.89 135.74,396.35
             134.45,394.93 134.39,393.73 134.00,392.00
             135.55,391.42 137.34,390.63 139.00,390.48 Z
           M 177.82,392.46
           C 186.30,387.16 187.11,400.71 177.82,398.67
             175.51,398.09 175.14,397.02 174.00,395.00
             174.00,395.00 177.82,392.46 177.82,392.46 Z
           M 161.94,401.27
           C 154.94,403.34 152.37,396.54 159.06,393.61
             167.08,392.98 167.44,399.65 161.94,401.27 Z" />
</svg>
